#!OML:ASF E:\Mandelcareful walks\Project 1\Capture day 1\Session 1\Subject1.ASF
:FULLY-SPECIFIED
:DEGREES
407
root -12.3553 14.6983 -1.18096 -254.52 87.8814 88.9743
lowerback 21.074 -0.0158048 -8.17011
upperback 7.11032 -1.16882 -0.453953
thorax -3.80371 -0.419722 4.42226
lowerneck -26.8241 0.747867 -3.80215
upperneck 16.393 2.26032 0.873468
head 9.49369 0.904523 1.26835
rclavicle 2.38542e-015 -1.59028e-014
rhumerus -38.0899 6.60802 -83.7035
rradius 75.3874
rwrist -18.4237
rhand -27.8028 -11.643
rfingers 7.12502
rthumb -1.19543 -41.6194
lclavicle 2.38542e-015 -1.59028e-014
lhumerus -42.0151 -40.4587 89.734
lradius 83.0979
lwrist 5.00431
lhand -23.6265 -11.8753
lfingers 7.12502
lthumb 2.8381 18.0856
rfemur -59.8109 -20.7943 10.6125
rtibia 58.5594
rfoot -9.64001 -9.34005
rtoes -5.57499
lfemur -45.7614 17.358 -21.1217
ltibia 69.5575
lfoot -35.4042 15.0797
ltoes -15.5672
408
root -12.2762 14.687 -1.13731 -268.967 87.5687 74.0997
lowerback 20.7754 0.0206473 -8.25573
upperback 6.90673 -1.14719 -0.468372
thorax -3.87395 -0.41089 4.44733
lowerneck -26.52 0.800412 -3.70285
upperneck 16.2754 2.32973 0.654388
head 9.40419 0.919195 1.18178
rclavicle -3.57812e-015 9.54166e-015
rhumerus -38.3407 6.327 -83.7934
rradius 75.146
rwrist -17.7935
rhand -27.7572 -12.5976
rfingers 7.12502
rthumb -1.15145 -42.5742
lclavicle -3.57812e-015 9.54166e-015
lhumerus -40.7633 -40.0241 89.0579
lradius 82.7705
lwrist 5.0138
lhand -23.1561 -12.1991
lfingers 7.12502
lthumb 3.29232 17.7552
rfemur -61.8358 -20.7042 11.9237
rtibia 57.9179
rfoot -8.55698 -9.62746
rtoes -4.83562
lfemur -45.7736 17.7632 -21.37
ltibia 69.351
lfoot -35.4682 15.3664
ltoes -15.5818
409
root -12.155 14.7004 -1.07975 -260.868 87.207 82.5025
lowerback 20.965 -0.281956 -8.11406
upperback 7.08142 -1.49628 -0.415455
thorax -3.73703 -0.584028 4.50556
lowerneck -26.5445 0.836752 -3.66042
upperneck 16.0945 2.41803 0.4104
head 9.34676 0.936869 1.10097
rclavicle 1.78906e-014 -2.74323e-014
rhumerus -38.2934 6.18319 -83.8366
rradius 74.738
rwrist -17.4061
rhand -27.6817 -12.9872
rfingers 7.12502
rthumb -1.07845 -42.9642
lclavicle 1.78906e-014 -2.74323e-014
lhumerus -39.0876 -39.4668 88.0988
lradius 82.4587
lwrist 4.91171
lhand -22.9726 -12.703
lfingers 7.12502
lthumb 3.46956 17.2485
rfemur -62.4119 -21.3205 12.7888
rtibia 57.6353
rfoot -8.0583 -10.3834
rtoes -3.44422
lfemur -44.5842 17.4234 -21.2355
ltibia 68.9046
lfoot -35.5998 15.3144
ltoes -15.6885
410
root -12.0519 14.6922 -1.01119 -254.154 86.8249 89.0936
lowerback 20.8692 -0.538602 -7.85728
upperback 7.04408 -1.77141 -0.369238
thorax -3.70261 -0.718964 4.47046
lowerneck -26.3468 0.86618 -3.42488
upperneck 15.9284 2.44106 0.0497975
head 9.26365 0.923084 0.937184
rclavicle -2.70347e-014 1.31198e-014
rhumerus -38.4235 5.77477 -83.8689
rradius 74.1055
rwrist -17.4457
rhand -27.9696 -12.9739
rfingers 7.12502
rthumb -1.35653 -42.9493
lclavicle -2.70347e-014 1.31198e-014
lhumerus -37.6856 -39.2255 87.3745
lradius 82.2775
lwrist 5.17484
lhand -22.7349 -12.693
lfingers 7.12502
lthumb 3.6991 17.2546
rfemur -63.633 -21.9288 13.7969
rtibia 57.7451
rfoot -7.82987 -11.8742
rtoes -2.28892
lfemur -44.1179 17.054 -21.2034
ltibia 68.5659
lfoot -35.4702 15.3604
ltoes -16.0637
411
root -11.9201 14.6906 -0.952897 -263.934 86.4674 79.5262
lowerback 20.751 -0.604922 -7.76706
upperback 7.16857 -1.8178 -0.369286
thorax -3.5047 -0.750766 4.42401
lowerneck -26.5614 0.932512 -3.59203
upperneck 16.0391 2.64861 -0.138079
head 9.3361 0.983513 0.932343
rclavicle -9.93923e-015 -1.19271e-015
rhumerus -38.4133 5.86843 -83.8751
rradius 73.5049
rwrist -17.7908
rhand -28.3312 -12.8896
rfingers 7.12502
rthumb -1.70583 -42.8626
lclavicle -9.93923e-015 -1.19271e-015
lhumerus -36.4162 -38.5381 86.8872
lradius 82.1067
lwrist 5.95081
lhand -23.0212 -12.4825
lfingers 7.12502
lthumb 3.42264 17.4698
rfemur -64.3964 -21.9087 14.5653
rtibia 58.0161
rfoot -8.03946 -13.5144
rtoes 1.06451
lfemur -42.9569 17.5319 -21.2124
ltibia 68.1336
lfoot -35.7093 15.4951
ltoes -16.034
412
root -11.7779 14.6872 -0.889212 -272.353 85.8228 71.3254
lowerback 20.5044 -0.612047 -7.7672
upperback 7.29504 -1.80055 -0.482495
thorax -3.24731 -0.753241 4.28892
lowerneck -26.6144 0.939292 -3.66184
upperneck 16.0712 2.72127 -0.284954
head 9.35708 0.994338 0.903828
rclavicle -1.13307e-014 1.07344e-014
rhumerus -38.4793 5.86838 -83.925
rradius 73.0695
rwrist -18.1589
rhand -28.2749 -13.3372
rfingers 7.12502
rthumb -1.65145 -43.3105
lclavicle -1.13307e-014 1.07344e-014
lhumerus -35.3595 -38.0173 86.4985
lradius 82.0072
lwrist 7.25023
lhand -23.9959 -12.483
lfingers 7.12502
lthumb 2.48127 17.4823
rfemur -64.931 -21.8151 14.9297
rtibia 58.5054
rfoot -8.72595 -15.1206
rtoes 5.57479
lfemur -41.7403 18.154 -21.4169
ltibia 67.7937
lfoot -36.0805 15.5855
ltoes -15.9468
413
root -11.6405 14.6736 -0.815151 -276.646 85.2285 67.0293
lowerback 20.0575 -0.601982 -7.5556
upperback 7.30728 -1.72179 -0.576155
thorax -3.02908 -0.723808 4.03925
lowerneck -26.3711 0.894899 -3.61355
upperneck 15.9937 2.66564 -0.440882
head 9.29403 0.955777 0.830476
rclavicle -7.55382e-015 -8.94531e-015
rhumerus -38.6893 5.55143 -83.9289
rradius 72.6085
rwrist -18.5702
rhand -28.1712 -13.6843
rfingers 7.12502
rthumb -1.55125 -43.6584
lclavicle -7.55382e-015 -8.94531e-015
lhumerus -34.5836 -37.7472 86.3259
lradius 82.0268
lwrist 8.84238
lhand -25.1904 -12.5603
lfingers 7.12502
lthumb 1.32764 17.4153
rfemur -65.4068 -21.7048 15.207
rtibia 59.0876
rfoot -9.48437 -16.4806
rtoes 5.99016
lfemur -40.9385 18.7176 -21.5712
ltibia 67.5672
lfoot -36.0735 15.7849
ltoes -16.7893
414
root -11.5146 14.654 -0.723602 -269.153 84.8857 74.3791
lowerback 19.7793 -1.03424 -7.25364
upperback 6.96686 -2.24103 -0.370112
thorax -3.19951 -0.975669 4.19782
lowerneck -25.2644 1.01537 -3.78948
upperneck 15.7777 2.89173 -0.690358
head 9.03318 1.03184 0.794588
rclavicle -3.18055e-015 2.127e-014
rhumerus -39.3428 5.8855 -83.8411
rradius 72.1863
rwrist -19.115
rhand -28.2527 -13.6222
rfingers 7.12502
rthumb -1.62999 -43.5957
lclavicle -3.18055e-015 2.127e-014
lhumerus -34.7508 -36.8851 86.917
lradius 82.0354
lwrist 10.4747
lhand -26.6895 -12.7592
lfingers 7.12502
lthumb -0.120197 17.2205
rfemur -65.5336 -22.2064 15.1486
rtibia 59.8968
rfoot -10.5609 -17.2289
rtoes 4.5892
lfemur -40.6298 18.4451 -21.5648
ltibia 67.5376
lfoot -35.8016 15.8359
ltoes -17.7752
415
root -11.3497 14.6456 -0.638455 -270.959 84.5391 72.9479
lowerback 19.7336 -1.16499 -6.62511
upperback 7.04218 -2.28558 -0.378848
thorax -3.12453 -0.994763 3.83904
lowerneck -25.4974 0.956787 -3.91232
upperneck 16.0479 2.90566 -0.819505
head 9.16809 1.00795 0.775815
rclavicle 5.26779e-015 5.26779e-014
rhumerus -39.4833 5.69578 -83.7974
rradius 71.6953
rwrist -19.6658
rhand -28.2612 -12.7279
rfingers 7.12502
rthumb -1.63818 -42.7013
lclavicle 5.26779e-015 5.26779e-014
lhumerus -34.3116 -36.6064 86.9786
lradius 82.0461
lwrist 12.2511
lhand -28.076 -12.6541
lfingers 7.12502
lthumb -1.4593 17.3207
rfemur -64.682 -21.973 14.5767
rtibia 60.7421
rfoot -11.715 -16.7121
rtoes 4.17289
lfemur -39.4504 18.9064 -21.2233
ltibia 67.6922
lfoot -35.7441 15.6094
ltoes -18.6725
416
root -11.1862 14.6262 -0.552937 -273.21 84.1479 71.0217
lowerback 19.6334 -1.25293 -5.72728
upperback 7.15684 -2.22762 -0.575819
thorax -3.01268 -0.95782 3.1033
lowerneck -26.0109 0.726519 -4.00825
upperneck 16.4263 2.65078 -0.755058
head 9.38972 0.878645 0.782645
rclavicle -6.16232e-015 7.45443e-015
rhumerus -39.554 5.16928 -83.8935
rradius 71.2632
rwrist -20.2777
rhand -28.1289 -11.6515
rfingers 7.12502
rthumb -1.51036 -41.6259
lclavicle -6.16232e-015 7.45443e-015
lhumerus -33.9923 -36.6198 86.8417
lradius 82.3115
lwrist 13.6139
lhand -29.1962 -12.4259
lfingers 7.12502
lthumb -2.54117 17.5387
rfemur -64.0592 -21.71 13.9595
rtibia 61.6321
rfoot -12.5402 -15.8835
rtoes 4.32283
lfemur -38.6072 19.4048 -20.9132
ltibia 68.2765
lfoot -34.9637 15.66
ltoes -20.0048
417
root -11.0247 14.6094 -0.473145 -275.186 83.7023 69.4649
lowerback 19.6518 -1.52946 -5.23248
upperback 7.06083 -2.50865 -0.523337
thorax -3.1252 -1.09004 2.94135
lowerneck -25.4146 0.729159 -4.40032
upperneck 16.4127 2.77577 -0.796218
head 9.27925 0.911177 0.845433
rclavicle 3.73311e-014 2.08972e-014
rhumerus -39.7952 5.91104 -83.8665
rradius 70.8713
rwrist -21.071
rhand -27.9889 -12.0714
rfingers 7.12502
rthumb -1.37521 -42.0467
lclavicle 3.73311e-014 2.08972e-014
lhumerus -34.6007 -35.3731 87.4248
lradius 82.5749
lwrist 14.2346
lhand -30.3125 -12.6501
lfingers 7.12502
lthumb -3.61925 17.2989
rfemur -63.507 -21.6821 13.5258
rtibia 62.4816
rfoot -13.1325 -15.2562
rtoes 4.66057
lfemur -37.9746 19.8368 -20.5911
ltibia 69.3505
lfoot -33.4586 15.6453
ltoes -20.6127
418
root -10.8634 14.6046 -0.39313 -275.378 83.1579 69.7703
lowerback 19.8904 -1.8203 -4.88833
upperback 6.81464 -2.85874 -0.481361
thorax -3.50206 -1.25002 2.88126
lowerneck -24.42 0.812138 -4.53451
upperneck 16.4239 2.92069 -0.969436
head 9.11497 0.957085 0.820825
rclavicle 3.47873e-015 -2.48481e-014
rhumerus -40.2762 6.78041 -83.8188
rradius 70.5217
rwrist -21.8645
rhand -27.8949 -12.6043
rfingers 7.12502
rthumb -1.28445 -42.5802
lclavicle 3.47873e-015 -2.48481e-014
lhumerus -35.5027 -34.2546 88.2445
lradius 82.5756
lwrist 14.5181
lhand -31.19 -12.765
lfingers 7.12502
lthumb -4.46664 17.1679
rfemur -62.8388 -22.0494 13.0998
rtibia 63.3521
rfoot -13.809 -14.7519
rtoes 4.37963
lfemur -37.6505 20.0295 -20.3214
ltibia 70.9787
lfoot -31.3282 15.4238
ltoes -20.3778
419
root -10.7051 14.5991 -0.307983 -276.347 82.5246 69.2748
lowerback 20.1432 -1.95379 -4.31231
upperback 6.91502 -2.93139 -0.689403
thorax -3.56523 -1.27305 2.35775
lowerneck -25.1888 0.618923 -4.64077
upperneck 17.0838 2.73153 -0.830634
head 9.47777 0.855721 0.869775
rclavicle -5.56597e-015 1.04362e-014
rhumerus -40.0649 6.89072 -83.7797
rradius 70.1699
rwrist -22.3647
rhand -27.8082 -11.9199
rfingers 7.12502
rthumb -1.20065 -41.8963
lclavicle -5.56597e-015 1.04362e-014
lhumerus -35.3731 -34.1254 88.3831
lradius 82.3416
lwrist 14.6937
lhand -31.5546 -12.5982
lfingers 7.12502
lthumb -4.8187 17.327
rfemur -62.162 -22.3329 12.6101
rtibia 64.2363
rfoot -14.7477 -14.3293
rtoes 2.57389
lfemur -37.7799 20.3306 -20.1181
ltibia 73.0748
lfoot -28.1905 15.2594
ltoes -19.5225
420
root -10.5522 14.5866 -0.222971 -279.135 81.7733 66.9475
lowerback 20.5583 -1.9849 -4.44259
upperback 6.69041 -3.03308 -0.612454
thorax -4.00135 -1.31399 2.55888
lowerneck -24.9577 0.541067 -4.94983
upperneck 17.5064 2.73103 -0.793135
head 9.58467 0.830434 0.934751
rclavicle 2.38542e-015 -1.13307e-014
rhumerus -40.2823 7.74211 -83.4988
rradius 69.8534
rwrist -22.5408
rhand -27.8383 -11.6436
rfingers 7.12502
rthumb -1.22977 -41.6198
lclavicle 2.38542e-015 -1.13307e-014
lhumerus -36.0588 -33.2399 89.3163
lradius 82.0313
lwrist 14.4592
lhand -31.5584 -12.5286
lfingers 7.12502
lthumb -4.82238 17.3966
rfemur -61.5201 -22.3306 12.0516
rtibia 65.0228
rfoot -15.6528 -13.8833
rtoes 1.13643
lfemur -38.1237 20.926 -19.9446
ltibia 75.4615
lfoot -24.6549 14.5052
ltoes -16.1667
421
root -10.4078 14.5785 -0.140682 -283.241 81.3916 63.3383
lowerback 20.7016 -1.93163 -4.23713
upperback 6.71067 -2.9229 -0.469843
thorax -4.06547 -1.25939 2.57558
lowerneck -24.7251 0.336091 -5.15248
upperneck 17.6774 2.4958 -0.706774
head 9.60745 0.715565 0.962506
rclavicle 3.27995e-014 -2.0276e-014
rhumerus -40.1087 8.19153 -83.1549
rradius 69.4704
rwrist -22.3996
rhand -27.8248 -12.1047
rfingers 7.12502
rthumb -1.21672 -42.081
lclavicle 3.27995e-014 -2.0276e-014
lhumerus -36.1627 -32.5879 89.9771
lradius 81.6021
lwrist 14.0656
lhand -31.1435 -12.4758
lfingers 7.12502
lthumb -4.42167 17.4581
rfemur -60.7831 -22.1098 11.9965
rtibia 65.6446
rfoot -16.4594 -13.4894
rtoes 0.281269
lfemur -38.8651 21.9042 -19.4223
ltibia 77.8875
lfoot -20.2814 14.9809
ltoes -16.0368
